<svg width="32" height="32" viewBox="0 0 32 32" fill="none" xmlns="http://www.w3.org/2000/svg">
<path d="M27.0572 22.9843H19.6172C19.3409 22.9843 19.1172 23.2081 19.1172 23.4844C19.1172 23.7605 19.3409 23.9842 19.6172 23.9842H27.0572C27.9073 23.9945 28.6053 23.3146 28.617 22.4643V7.48919C28.6172 7.36908 28.5742 7.2528 28.4956 7.1618L23.3055 1.15722C23.2107 1.04736 23.0724 0.984188 22.927 0.984555H11.677C10.8271 0.974118 10.1289 1.65417 10.1174 2.50433V14.4844C10.1174 14.7603 10.3411 14.9842 10.6171 14.9842C10.8934 14.9842 11.1173 14.7603 11.1173 14.4844V2.50433C11.1292 2.20642 11.3793 1.97424 11.677 1.98449H22.0802L22.1174 7.24273C22.1238 7.9292 22.681 8.48236 23.3672 8.48437H27.6171V22.4643C27.6052 22.762 27.3549 22.9944 27.0572 22.9843ZM23.1173 7.23431L23.0847 2.42743L27.4519 7.48425H23.3672C23.2292 7.48425 23.1173 7.37237 23.1173 7.23431Z" fill="#006699"/>
<path d="M9.3672 30.9844H11.8673C12.5576 30.9844 13.1172 30.4244 13.1172 29.7341V25.9843H16.8672C17.5575 25.9843 18.1171 25.4246 18.1171 24.7343V22.2343C18.1171 21.544 17.5575 20.9843 16.8672 20.9843H13.1172V17.2343C13.1172 16.5441 12.5576 15.9844 11.8673 15.9844H9.3672C8.6769 15.9844 8.11732 16.5441 8.11732 17.2343V20.9843H4.36732C3.67683 20.9843 3.11726 21.544 3.11726 22.2343V24.7343C3.11726 25.4246 3.67683 25.9843 4.36732 25.9843H8.11732V29.7341C8.11732 30.4244 8.6769 30.9844 9.3672 30.9844ZM4.1172 24.7343V22.2343C4.1172 22.0963 4.22908 21.9844 4.36732 21.9844H8.6172C8.89351 21.9844 9.11726 21.7604 9.11726 21.4841V17.2343C9.11726 17.0964 9.22932 16.9845 9.3672 16.9845H11.8673C12.0054 16.9845 12.1173 17.0964 12.1173 17.2343V21.4841C12.1173 21.7604 12.341 21.9844 12.6171 21.9844H16.8672C17.0053 21.9844 17.1171 22.0963 17.1171 22.2343V24.7343C17.1171 24.8723 17.0053 24.9842 16.8672 24.9842H12.6171C12.341 24.9842 12.1173 25.2081 12.1173 25.4844V29.7341C12.1173 29.8722 12.0054 29.9841 11.8673 29.9841H9.3672C9.22932 29.9841 9.11726 29.8722 9.11726 29.7341V25.4844C9.11726 25.2081 8.89351 24.9842 8.6172 24.9842H4.36732C4.22908 24.9842 4.1172 24.8723 4.1172 24.7343Z" fill="#006699"/>
</svg>
