<svg width="32" height="32" viewBox="0 0 32 32" fill="none" xmlns="http://www.w3.org/2000/svg">
<g clip-path="url(#clip0)">
<path d="M27.2363 14.0936H10.1935C9.93462 14.0936 9.72474 14.3034 9.72474 14.5623C9.72474 14.8212 9.93462 15.0311 10.1935 15.0311H27.2364C27.4953 15.0311 27.7051 14.8212 27.7051 14.5623C27.7051 14.3034 27.4952 14.0936 27.2363 14.0936Z" fill="#006699"/>
<path d="M27.2363 16.587H15.1261C14.8672 16.587 14.6574 16.7969 14.6574 17.0558C14.6574 17.3146 14.8672 17.5245 15.1261 17.5245H27.2363C27.4952 17.5245 27.7051 17.3146 27.7051 17.0558C27.7051 16.7969 27.4952 16.587 27.2363 16.587Z" fill="#006699"/>
<path d="M27.2363 19.0804H16.7472C16.4883 19.0804 16.2785 19.2903 16.2785 19.5491C16.2785 19.808 16.4883 20.0179 16.7472 20.0179H27.2363C27.4952 20.0179 27.7051 19.808 27.7051 19.5491C27.7051 19.2903 27.4952 19.0804 27.2363 19.0804Z" fill="#006699"/>
<path d="M19.553 21.5738H17.4331C17.1742 21.5738 16.9644 21.7837 16.9644 22.0426C16.9644 22.3014 17.1742 22.5113 17.4331 22.5113H19.5531C19.812 22.5113 20.0218 22.3014 20.0218 22.0426C20.0217 21.7836 19.8119 21.5738 19.553 21.5738Z" fill="#006699"/>
<path d="M10.1935 8.11531H16.4541C16.7131 8.11531 16.9229 7.90544 16.9229 7.64656C16.9229 7.38769 16.7131 7.17781 16.4541 7.17781H10.1935C9.93462 7.17781 9.72474 7.38769 9.72474 7.64656C9.72474 7.90544 9.93462 8.11531 10.1935 8.11531Z" fill="#006699"/>
<path d="M11.5894 19.8857C11.3583 19.769 11.0763 19.8618 10.9597 20.0929L7.44143 27.0631L4.66437 24.2861C4.48131 24.1031 4.18449 24.1031 4.00149 24.2861C3.81843 24.4692 3.81843 24.766 4.00149 24.949L7.23656 28.1841C7.32512 28.2726 7.44468 28.3214 7.56799 28.3214C7.59268 28.3214 7.61749 28.3194 7.64224 28.3154C7.79068 28.2916 7.91874 28.1981 7.98649 28.0638L11.7967 20.5154C11.9133 20.2842 11.8205 20.0023 11.5894 19.8857Z" fill="#006699"/>
<path d="M31.9686 12.3924C31.9686 10.3544 31.1752 8.43906 29.7345 6.99919L24.9696 2.23356C23.5293 0.793187 21.6139 0 19.5763 0H8.53267C6.90017 0 5.57205 1.32838 5.57205 2.96119V16.0128C4.42661 16.4056 3.35118 17.0578 2.4388 17.9702C0.8863 19.5223 0.0312996 21.5861 0.0312996 23.7812C0.0312996 25.9764 0.8863 28.0402 2.43874 29.5923C3.85392 31.0078 5.73211 31.857 7.7273 31.9834C7.90186 31.9945 8.07599 32 8.24992 32C8.30824 32 29.0074 31.9996 29.0074 31.9996C30.6399 31.9996 31.968 30.6712 31.968 29.0384L31.9686 12.3924ZM29.0074 31.0621H12.0642C12.4688 30.8501 12.8572 30.6041 13.2243 30.3242C13.4302 30.1673 13.4699 29.8732 13.3129 29.6673C13.1559 29.4614 12.8617 29.4218 12.6559 29.5788C9.77493 31.7749 5.66755 31.4959 3.10168 28.9294C1.7263 27.5543 0.968862 25.726 0.968862 23.7812C0.968862 21.8365 1.7263 20.0082 3.10174 18.6331C5.94042 15.7944 10.5594 15.7943 13.3981 18.6331C15.9639 21.1989 16.2428 25.3061 14.0468 28.1867C13.8899 28.3926 13.9295 28.6867 14.1354 28.8436C14.3412 29.0006 14.6354 28.9609 14.7923 28.7551C15.9874 27.1874 16.5766 25.2352 16.4514 23.2582C16.3249 21.2631 15.476 19.3851 14.061 17.9702C12.0146 15.9238 9.14843 15.1846 6.50961 15.7521V2.96119C6.50961 1.84531 7.41718 0.937437 8.53274 0.937437H18.5226C20.1284 0.937437 21.539 2.01981 21.9528 3.56962C22.0196 3.81975 22.2769 3.96831 22.5266 3.90156C22.7767 3.83475 22.9254 3.57787 22.8586 3.32775C22.6428 2.51994 22.2128 1.8125 21.6398 1.26C22.6347 1.58119 23.5462 2.13594 24.3066 2.89637L29.0716 7.66206C29.8331 8.42319 30.3884 9.33575 30.7095 10.332C29.8927 9.48537 28.7471 8.958 27.4806 8.958H25.0337C23.9182 8.958 23.0106 8.05019 23.0106 6.93425V5.53675C23.0106 5.27787 22.8007 5.068 22.5418 5.068C22.2829 5.068 22.0731 5.27787 22.0731 5.53675V6.93425C22.0731 8.56706 23.4012 9.89544 25.0337 9.89544H27.4806C29.4303 9.89544 31.0174 11.4753 31.0305 13.4219V29.0383C31.0306 30.1543 30.1229 31.0621 29.0074 31.0621Z" fill="#006699"/>
</g>
<defs>
<clipPath id="clip0">
<rect width="32" height="32" fill="white"/>
</clipPath>
</defs>
</svg>
